<svg xmlns="http://www.w3.org/2000/svg" viewBox="0 0 64 64" width="512px" height="512px"><path d="M59.88 10.872L49.02 2.982a5.133 5.133 0 00-6.04 0L32.12 10.872A5.158 5.158 0 0030 15.031v3.25l2 1.46 9.07 6.59 2 1.45v-4.09a1.071 1.071 0 011.07-1.07h3.79A1.071 1.071 0 0149 23.691V30.93A3.077 3.077 0 0052.07 34h4.79A5.138 5.138 0 0062 28.86V15.031A5.158 5.158 0 0059.88 10.872zM43.2 30.348L27.993 19.3a6.78 6.78 0 00-7.986 0L4.8 30.348a6.812 6.812 0 00-2.8 5.5V55.208A6.8 6.8 0 008.793 62H15.1A3.9 3.9 0 0019 58.1V47.966a1.9 1.9 0 011.9-1.9H27.1a1.9 1.9 0 011.9 1.9V58.1A3.9 3.9 0 0032.9 62h6.311A6.8 6.8 0 0046 55.208V35.844A6.812 6.812 0 0043.2 30.348z"/></svg>