<svg xmlns="http://www.w3.org/2000/svg" id="Layer_1" x="0" y="0" version="1.1" viewBox="0 0 70 70" xml:space="preserve" width="256" height="256"><path d="M51.46 34.105c0 2.52-1.8 4.61-4.17 5.08v9.3c0 .42-.26.79-.65.94a1.017 1.017 0 0 1-1.11-.28 25.173 25.173 0 0 0-18.01-8.61v-12.86c6.91-.26 13.44-3.37 18.01-8.61.28-.31.72-.42 1.11-.28.39.15.65.52.65.94v9.3c2.37.47 4.17 2.56 4.17 5.08zM24.178 41.915h1.342v-15.62H15.4c-.56 0-1 .45-1 1v1.52c-2.498.468-4.4 2.659-4.4 5.29s1.902 4.822 4.4 5.29v1.52c0 .55.44 1 1 1h1.734l2.776 8.66c.13.42.52.7.95.7h4.94c.32 0 .62-.16.81-.41.19-.26.24-.59.14-.9l-2.572-8.05zM60 34.105c0 3.52-1.36 6.82-3.85 9.31a1.001 1.001 0 0 1-1.41 0c-.39-.39-.39-1.03 0-1.42 2.1-2.1 3.26-4.91 3.26-7.89 0-2.99-1.16-5.79-3.26-7.89-.39-.4-.39-1.03 0-1.42a.996.996 0 0 1 1.41 0c2.49 2.48 3.85 5.79 3.85 9.31z" fill="#000000" class="color000 svgShape"></path><path d="M52.71 39.975c-.2.19-.45.29-.71.29s-.51-.1-.71-.29c-.39-.39-.39-1.03 0-1.42 2.46-2.45 2.46-6.45 0-8.91a.996.996 0 0 1 0-1.41c.39-.39 1.03-.39 1.42 0 3.23 3.24 3.23 8.5 0 11.74z" fill="#000000" class="color000 svgShape"></path></svg>